<?xml version="1.0" encoding="UTF-8" standalone="no"?>
<!DOCTYPE svg PUBLIC "-//W3C//DTD SVG 1.1//EN" "http://www.w3.org/Graphics/SVG/1.1/DTD/svg11.dtd">
<svg width="100%" height="100%" viewBox="0 0 1390 303" version="1.1" xmlns="http://www.w3.org/2000/svg" xmlns:xlink="http://www.w3.org/1999/xlink" xml:space="preserve" xmlns:serif="http://www.serif.com/" style="fill-rule:evenodd;clip-rule:evenodd;stroke-linejoin:round;stroke-miterlimit:1.41421;">
    <g transform="matrix(1,0,0,1,-56.57,-895.448)">
        <g transform="matrix(4.16667,0,0,4.16667,0,0)">
            <g transform="matrix(1,0,0,1,35.042,227.629)">
                <path d="M0,30.276C-2.721,30.751 -5.441,32.528 -6.397,34.601C-6.912,35.727 -6.986,37.09 -5.294,37.505C0.515,38.572 3.088,31.521 3.676,30.276C2.573,30.04 1.176,30.098 0,30.276M-19.192,33.594C-19.045,34.601 -18.163,36.024 -17.06,34.661C-14.927,31.877 -14.707,19.137 -14.633,16.116C-16.692,20.501 -20.001,28.618 -19.192,33.594M-10.442,6.991C-7.794,2.547 -4.412,-1.896 0.367,-3.2C8.382,-5.392 11.471,4.562 -0.368,11.968L-3.015,13.686C8.897,14.042 9.853,24.588 7.279,30.751C8.382,31.343 9.265,32.113 9.927,33.061C10.074,33.298 9.927,33.535 9.632,33.654C9.412,33.772 9.044,33.713 8.897,33.476C8.456,32.765 7.721,32.113 6.912,31.639C4.853,35.787 0.662,39.875 -5.589,38.394C-8.015,37.801 -8.236,35.964 -7.5,34.305C-6.324,31.877 -3.309,29.862 -0.147,29.387C1.176,29.151 2.794,29.21 4.044,29.447C4.779,27.907 7.5,13.508 -4.633,14.634C-5.736,14.812 -5.294,13.983 -4.633,13.568C4.853,8.058 6.471,-2.489 1.323,-2.193C-3.971,-1.837 -9.045,6.162 -10.368,9.539C-10.442,15.345 -10.515,31.224 -16.324,35.549C-18.383,37.09 -20.001,35.491 -20.295,33.594C-21.325,27.314 -17.06,19.019 -14.633,13.153C-14.56,12.324 -13.604,-2.133 -15.663,-6.221C-16.398,-7.703 -17.722,-8.295 -18.972,-6.992C-19.633,-6.281 -20.148,-5.155 -20.148,-3.674C-20.148,-3.437 -20.369,-3.259 -20.736,-3.259C-21.03,-3.259 -21.251,-3.437 -21.251,-3.674C-21.251,-5.392 -20.663,-6.696 -19.854,-7.584C-18.016,-9.599 -15.295,-8.71 -13.898,-7.229C-11.03,-4.088 -10.442,4.384 -10.442,6.991" style="fill:rgb(33,110,142);fill-rule:nonzero;"/>
            </g>
        </g>
        <g transform="matrix(4.16667,0,0,4.16667,0,0)">
            <g transform="matrix(1,0,0,1,63.5684,250.322)">
                <path d="M0,-26.189C0.074,-28.144 -0.147,-29.684 -0.588,-30.751C-4.191,-38.69 -10.221,-9.006 -10.809,-1.778C-3.456,-9.065 -0.221,-19.434 0,-26.189M-0.588,4.917C-0.294,4.207 0.074,3.377 0.368,2.547C0.441,2.311 0.588,2.192 0.956,2.251C1.25,2.311 1.397,2.489 1.324,2.725L0.441,5.155C-0.735,7.88 -2.868,11.435 -6.471,12.265C-7.574,12.501 -8.75,12.443 -9.78,11.909C-21.177,6.043 -11.544,-31.936 -2.279,-32.943C-1.029,-33.061 0,-32.35 0.515,-31.047C1.029,-29.862 1.177,-28.203 1.177,-26.189C0.956,-19.138 -2.353,-8.176 -10.809,-0.356C-10.956,2.074 -11.177,12.324 -6.765,11.435C-3.456,10.546 -1.618,7.228 -0.588,4.917" style="fill:rgb(33,110,142);fill-rule:nonzero;"/>
            </g>
        </g>
        <g transform="matrix(4.16667,0,0,4.16667,0,0)">
            <g transform="matrix(1,0,0,1,69.3755,258.498)">
                <path d="M0,-11.554C-0.809,-10.606 -1.544,-9.006 -1.618,-7.822C2.794,-7.999 2.868,-14.991 0,-11.554M1.544,4.147C-8.015,3.851 -9.118,-8.828 -1.323,-12.62C5,-15.761 3.971,-7.051 -1.912,-6.814C-3.015,-2.548 -1.397,2.725 1.691,3.14C3.603,3.377 5.221,2.192 6.397,0.592C7.354,-0.771 8.089,-2.193 8.75,-3.852C8.971,-4.385 9.265,-5.214 9.486,-5.629C9.633,-5.866 9.78,-5.925 10.074,-5.866C10.368,-5.807 10.515,-5.629 10.368,-5.214L9.486,-3.022C8.824,-1.422 7.941,0.297 6.765,1.659C5.441,3.14 3.75,4.207 1.544,4.147" style="fill:rgb(33,110,142);fill-rule:nonzero;"/>
            </g>
        </g>
        <g transform="matrix(4.16667,0,0,4.16667,0,0)">
            <g transform="matrix(1,0,0,1,100.184,262.823)">
                <path d="M0,-17.834C2.573,-21.626 -1.471,-21.686 -1.765,-19.138C-1.838,-18.367 -1.838,-17.538 -1.25,-16.175L0,-17.834ZM-4.78,1.837C-4.927,2.785 -4.633,3.733 -3.53,3.614C-1.618,3.437 1.912,0.77 2.059,-2.488C-0.956,-1.896 -4.265,-1.007 -4.78,1.837M-16.324,-16.768C-13.751,-20.56 -17.795,-20.619 -18.089,-18.071C-18.163,-17.301 -18.163,-16.472 -17.574,-15.108L-16.324,-16.768ZM-20.736,0.652C-20.883,1.6 -20.589,2.548 -19.486,2.43C-17.574,2.252 -14.045,-0.414 -13.898,-3.673C-16.913,-3.081 -20.222,-2.192 -20.736,0.652M5.441,-3.14C6.029,2.192 -0.662,5.273 -4.118,4.562C-5.662,4.267 -6.177,3.081 -6.03,1.896C-5.589,-1.244 -2.5,-2.666 1.985,-3.495C1.397,-6.813 -0.368,-9.657 -2.647,-12.976C-5.368,-9.657 -5,-5.51 -10.515,-4.325C-9.927,1.008 -16.619,4.089 -20.075,3.378C-21.619,3.081 -22.133,1.896 -21.986,0.711C-21.545,-2.429 -18.457,-3.851 -13.971,-4.681C-14.486,-7.82 -16.472,-8.71 -18.898,-11.85C-19.854,-10.843 -20.295,-9.835 -21.03,-7.939C-21.104,-7.702 -21.398,-7.584 -21.692,-7.643C-22.06,-7.762 -22.06,-7.998 -21.986,-8.235C-21.325,-9.954 -20.883,-11.435 -19.56,-12.916C-20.442,-14.397 -21.104,-17.241 -19.413,-19.315C-17.28,-22.041 -12.133,-20.678 -15.369,-16.294C-15.81,-15.701 -16.324,-14.99 -16.986,-14.22C-14.486,-10.665 -11.177,-9.302 -10.589,-5.332C-6.104,-5.925 -5.736,-11.257 -3.236,-13.982C-4.118,-15.464 -4.78,-18.308 -3.088,-20.382C-0.956,-23.107 4.191,-21.744 0.956,-17.36C0.515,-16.768 0,-16.057 -0.662,-15.286C1.691,-11.731 4.338,-8.413 5.294,-4.147C7.279,-4.621 8.456,-5.925 9.265,-7.465C9.706,-8.235 10.074,-9.184 10.368,-9.954C10.441,-10.19 10.735,-10.25 10.956,-10.19C11.25,-10.132 11.324,-9.954 11.25,-9.717C10.368,-6.991 9.265,-4.088 5.441,-3.14" style="fill:rgb(33,110,142);fill-rule:nonzero;"/>
            </g>
        </g>
        <g transform="matrix(4.16667,0,0,4.16667,0,0)">
            <g transform="matrix(1,0,0,1,148.489,240.012)">
                <path d="M0,26.425C-4.633,28.262 -8.309,29.388 -12.354,32.232C-15.589,34.542 -18.971,38.098 -18.971,41.771C-18.971,44.97 -16.25,46.866 -12.28,45.385C-8.677,44.023 -4.485,39.756 -1.397,30.869C-0.882,29.446 -0.441,27.966 0,26.425M-12.06,15.701C-11.104,18.13 -8.309,17.419 -6.618,15.82C-1.177,10.606 2.206,-7.051 2.721,-9.954C3.162,-12.443 6.397,-12.265 6.838,-11.613C9.633,-7.347 6.618,17.182 5.074,23.404C6.912,22.515 8.162,21.507 8.088,20.796C8.088,20.322 9.927,20.263 10,20.915C10,22.159 7.206,23.463 4.779,24.529C2.794,32.054 -2.868,42.837 -11.839,46.215C-16.618,47.992 -20.148,45.682 -20.148,41.83C-20.148,37.861 -16.766,34.128 -13.236,31.58C-8.824,28.499 -4.706,27.373 0.294,25.299C2.279,14.813 3.456,3.318 3.382,-7.288C2.794,-3.911 -0.221,11.317 -6.03,16.471C-8.53,18.663 -11.765,18.841 -13.971,16.293C-19.119,10.25 -15.368,-2.785 -14.854,-9.303C-14.486,-13.51 -14.633,-17.479 -16.104,-18.842C-18.163,-20.738 -20.369,-17.835 -20.516,-16.057C-20.589,-15.82 -20.883,-15.642 -21.177,-15.642C-21.472,-15.702 -21.692,-15.88 -21.692,-16.116C-21.324,-18.782 -18.677,-21.567 -15.147,-19.79C-7.574,-15.82 -14.56,9.242 -12.06,15.701" style="fill:rgb(33,110,142);fill-rule:nonzero;"/>
            </g>
        </g>
        <g transform="matrix(4.16667,0,0,4.16667,0,0)">
            <g transform="matrix(1,0,0,1,172.384,256.603)">
                <path d="M0,-7.229C-0.221,-7.051 -0.588,-6.993 -0.809,-7.17C-1.544,-7.644 -2.279,-8 -2.868,-8.177C-3.162,-5.392 -2.721,-0.356 1.618,0.295C2.353,-1.778 2.353,-4.148 2.132,-6.222C1.765,-9.718 0.515,-12.74 -0.809,-12.798C-1.985,-12.917 -2.647,-9.896 -2.794,-9.125C-1.985,-8.888 -1.029,-8.473 -0.147,-7.881C0.147,-7.704 0.147,-7.407 0,-7.229M-4.338,4.443C-1.471,5.332 0.515,3.081 1.324,1.184C-3.677,0.295 -4.338,-5.096 -3.971,-8.473C-8.75,-8 -9.412,2.843 -4.338,4.443M7.794,-3.734C7.941,-3.97 8.015,-4.089 8.383,-4.03C8.677,-3.97 8.75,-3.734 8.677,-3.497L8.015,-1.778C6.912,0.769 5.074,1.244 2.427,1.302C1.324,4.028 -1.691,6.695 -5.588,5.865C-14.412,3.969 -11.544,-10.488 -3.897,-9.362C-3.677,-10.725 -2.868,-13.924 -0.662,-13.747C1.25,-13.569 2.794,-10.192 3.235,-6.34C3.53,-4.148 3.456,-1.719 2.794,0.355C4.265,0.533 6.103,-0.06 6.985,-1.897L7.794,-3.734Z" style="fill:rgb(33,110,142);fill-rule:nonzero;"/>
            </g>
        </g>
        <g transform="matrix(4.16667,0,0,4.16667,0,0)">
            <g transform="matrix(1,0,0,1,189.295,248.959)">
                <path d="M0,11.316C1.177,10.013 1.985,8.413 2.721,6.873C3.677,4.798 4.706,2.785 5.662,0.651C6.912,-1.955 7.794,-3.792 8.235,-4.503C8.604,-5.214 11.765,-4.622 11.544,-4.207C11.177,-3.259 9.338,7.228 9.854,11.849C10.294,15.405 12.721,12.62 13.824,10.961C15.368,8.65 16.25,6.28 17.354,3.91C17.5,3.673 17.721,3.554 18.016,3.614C18.31,3.673 18.383,3.91 18.31,4.147C17.5,6.28 15.81,9.894 14.779,11.435C12.721,14.457 9.559,16.53 7.573,12.146C5.735,8.057 7.573,0.415 7.721,-0.889C7.353,-0.06 7.133,0.533 6.838,1.066L3.75,7.406C2.867,9.243 1.765,11.08 0.294,12.502C-0.809,13.568 -2.133,14.101 -3.75,13.508C-7.941,12.027 -5.368,6.399 -5.516,3.377C-5.589,2.252 -5.81,1.54 -6.397,1.599C-7.06,1.659 -7.501,2.666 -7.721,3.199L-8.897,5.924C-8.971,6.162 -9.192,6.28 -9.486,6.221C-9.78,6.162 -9.927,5.924 -9.854,5.687C-9.486,4.74 -9.192,3.851 -8.824,3.081C-8.31,1.837 -7.501,0.295 -5.516,0.473C-0.441,0.888 -4.56,10.665 -2.868,12.502C-2.279,13.093 -0.809,12.205 0,11.316" style="fill:rgb(33,110,142);fill-rule:nonzero;"/>
            </g>
        </g>
        <g transform="matrix(4.16667,0,0,4.16667,0,0)">
            <g transform="matrix(1,0,0,1,210.321,259.802)">
                <path d="M0,-17.834C0.074,-18.9 -0.294,-19.493 -0.809,-19.789C-2.5,-20.679 -3.603,-15.523 -0.809,-14.279C-0.367,-15.583 -0.073,-16.887 0,-17.834M-3.456,-20.086C-2.646,-20.797 -1.323,-21.093 -0.221,-20.56C0.589,-20.145 1.177,-19.256 1.104,-17.834C1.029,-16.709 0.662,-15.286 0.147,-13.864C1.471,-13.331 3.31,-12.917 4.706,-13.331C5.221,-13.509 5.441,-13.509 6.03,-13.509C7.06,-13.568 7.941,-13.272 7.501,-12.265C6.912,-10.783 1.104,3.141 6.397,1.777C7.941,1.362 9.412,0.237 10.589,-1.066C11.692,-2.252 12.354,-3.496 12.942,-4.858C13.236,-5.511 13.53,-6.222 13.897,-6.933C14.045,-7.169 14.266,-7.288 14.56,-7.229C14.854,-7.169 14.854,-6.933 14.78,-6.695C14.56,-5.925 14.266,-5.214 13.972,-4.563C13.383,-3.199 12.722,-1.896 11.472,-0.533C10.222,0.889 8.604,2.133 6.766,2.666C4.78,3.259 3.015,2.666 2.06,1.126C-0.367,-2.903 2.133,-9.599 3.677,-12.146C2.427,-11.969 0.589,-12.265 -0.294,-12.502C-1.396,-9.776 -2.5,-7.406 -3.456,-4.918C-3.529,-4.681 -3.75,-4.563 -4.044,-4.621C-4.338,-4.681 -4.485,-4.918 -4.412,-5.155L-1.323,-12.857C-5,-14.161 -5.735,-18.131 -3.456,-20.086" style="fill:rgb(33,110,142);fill-rule:nonzero;"/>
            </g>
        </g>
        <g transform="matrix(4.16667,0,0,4.16667,0,0)">
            <g transform="matrix(1,0,0,1,280.688,268.926)">
                <path d="M0,-51.843C-0.515,-53.266 -1.617,-53.384 -3.015,-52.673C-9.265,-49.414 -10.956,-31.639 -11.323,-27.314C-5.441,-30.75 2.133,-45.86 0,-51.843M-32.648,-22.693C-37.722,-20.56 -39.928,-14.042 -38.898,-9.539C-38.457,-7.584 -37.501,-5.925 -36.104,-8.709C-34.192,-12.561 -32.574,-21.389 -32.574,-22.693L-32.648,-22.693ZM-15.662,-24.233C-20.516,-22.455 -23.383,-25.299 -28.236,-24.114C-28.383,-23.404 -29.633,-13.331 -33.824,-7.702C-36.545,-4.088 -39.192,-6.28 -40.001,-9.242C-41.325,-14.28 -38.384,-21.744 -32.428,-23.759C-32.134,-25.596 -30.81,-40.645 -31.986,-46.096C-32.354,-47.696 -34.045,-50.066 -35.884,-48.229C-36.472,-47.637 -36.913,-46.689 -36.986,-45.385C-36.986,-45.089 -37.28,-44.911 -37.574,-44.911C-37.869,-44.971 -38.09,-45.149 -38.09,-45.385C-38.016,-46.926 -37.501,-48.051 -36.692,-48.822C-34.339,-51.073 -30.663,-48.822 -29.486,-46.748C-26.472,-41.593 -27.722,-29.151 -28.162,-25.121C-22.501,-26.011 -20.441,-23.226 -15.589,-25.359C-15.295,-29.328 -15,-50.421 -3.677,-53.68C-1.471,-54.332 0.368,-54.155 1.104,-52.14C3.456,-45.504 -4.485,-29.862 -11.397,-26.189C-11.839,-19.612 -12.427,-9.302 -9.706,-3.318C-8.235,0.059 -3.529,0.237 -4.559,-4.621C-4.632,-4.859 -4.412,-5.095 -4.117,-5.095C-3.823,-5.155 -3.529,-4.977 -3.456,-4.739C-1.911,2.311 -11.323,2.489 -14.118,-7.88C-15.662,-13.627 -15.883,-20.738 -15.662,-24.233" style="fill:rgb(33,110,142);fill-rule:nonzero;"/>
            </g>
        </g>
        <g transform="matrix(4.16667,0,0,4.16667,0,0)">
            <g transform="matrix(1,0,0,1,283.847,258.498)">
                <path d="M0,-11.554C-0.809,-10.606 -1.544,-9.006 -1.617,-7.822C2.794,-7.999 2.868,-14.991 0,-11.554M1.544,4.147C-8.015,3.851 -9.118,-8.828 -1.323,-12.62C5,-15.761 3.971,-7.051 -1.912,-6.814C-3.015,-2.548 -1.397,2.725 1.691,3.14C3.604,3.377 5.221,2.192 6.397,0.592C7.354,-0.771 8.089,-2.193 8.75,-3.852C8.971,-4.385 9.266,-5.214 9.485,-5.629C9.633,-5.866 9.78,-5.925 10.074,-5.866C10.368,-5.807 10.516,-5.629 10.368,-5.214L9.485,-3.022C8.824,-1.422 7.941,0.297 6.765,1.659C5.441,3.14 3.75,4.207 1.544,4.147" style="fill:rgb(33,110,142);fill-rule:nonzero;"/>
            </g>
        </g>
        <g transform="matrix(4.16667,0,0,4.16667,0,0)">
            <g transform="matrix(1,0,0,1,304.801,259.209)">
                <path d="M0,-9.717C-0.294,-9.777 -0.44,-10.013 -0.367,-10.31C0.589,-14.22 -3.309,-13.746 -5.809,-11.554C-11.029,-6.873 -9.706,4.325 -5.294,-0.592C-3.309,-2.784 -2.646,-7.229 -1.985,-7.88C-1.396,-8.413 0.662,-8.71 0.662,-8.176C0.662,-7.702 0.516,-4.148 0.516,-2.311C0.589,0.533 1.104,3.496 3.089,2.014C4.266,1.126 5.662,-0.889 7.133,-4.503C7.354,-5.096 7.722,-5.747 7.942,-6.399C8.016,-6.636 8.31,-6.696 8.53,-6.636C8.824,-6.576 8.897,-6.34 8.824,-6.103L8.162,-4.325C6.691,-0.474 5.222,1.659 3.824,2.666C1.985,4.029 0.147,3.14 -0.882,1.777C-1.69,0.711 -2.279,-0.948 -2.646,-2.726C-3.088,-1.718 -3.676,-0.829 -4.338,-0.059C-9.338,5.569 -13.677,-1.363 -12.206,-7.406C-11.617,-9.895 -9.779,-12.205 -7.5,-13.331C-3.529,-15.286 1.912,-14.99 0.735,-9.954C0.589,-9.717 0.295,-9.599 0,-9.717" style="fill:rgb(33,110,142);fill-rule:nonzero;"/>
            </g>
        </g>
        <g transform="matrix(4.16667,0,0,4.16667,0,0)">
            <g transform="matrix(1,0,0,1,316.416,259.802)">
                <path d="M0,-17.834C0.074,-18.9 -0.294,-19.493 -0.809,-19.789C-2.5,-20.679 -3.603,-15.523 -0.809,-14.279C-0.367,-15.583 -0.073,-16.887 0,-17.834M-3.456,-20.086C-2.646,-20.797 -1.323,-21.093 -0.221,-20.56C0.589,-20.145 1.177,-19.256 1.104,-17.834C1.029,-16.709 0.662,-15.286 0.147,-13.864C1.471,-13.331 3.31,-12.917 4.706,-13.331C5.221,-13.509 5.441,-13.509 6.03,-13.509C7.06,-13.568 7.941,-13.272 7.501,-12.265C6.912,-10.783 1.104,3.141 6.397,1.777C7.941,1.362 9.412,0.237 10.589,-1.066C11.691,-2.252 12.354,-3.496 12.942,-4.858C13.236,-5.511 13.53,-6.222 13.897,-6.933C14.045,-7.169 14.266,-7.288 14.56,-7.229C14.854,-7.169 14.854,-6.933 14.78,-6.695C14.56,-5.925 14.266,-5.214 13.972,-4.563C13.383,-3.199 12.722,-1.896 11.472,-0.533C10.222,0.889 8.604,2.133 6.766,2.666C4.78,3.259 3.015,2.666 2.06,1.126C-0.367,-2.903 2.133,-9.599 3.677,-12.146C2.427,-11.969 0.589,-12.265 -0.294,-12.502C-1.396,-9.776 -2.5,-7.406 -3.456,-4.918C-3.529,-4.681 -3.75,-4.563 -4.044,-4.621C-4.338,-4.681 -4.485,-4.918 -4.412,-5.155L-1.323,-12.857C-5,-14.161 -5.735,-18.131 -3.456,-20.086" style="fill:rgb(33,110,142);fill-rule:nonzero;"/>
            </g>
        </g>
        <g transform="matrix(4.16667,0,0,4.16667,0,0)">
            <g transform="matrix(1,0,0,1,335.165,264.305)">
                <path d="M0,-34.306C0,-33.535 -0.515,-30.514 -1.103,-26.722C3.383,-27.67 7.647,-28.618 8.456,-26.248C8.529,-26.011 8.31,-25.715 8.015,-25.656C7.721,-25.596 7.427,-25.774 7.354,-26.011C6.839,-27.493 3.089,-26.662 -1.177,-25.715C-1.985,-20.204 -2.647,-13.272 -2.059,-8.295C-1.617,-4.621 -0.441,-1.955 1.912,-1.778C5.294,-1.54 8.529,-6.162 9.633,-8.71L10.81,-11.436C10.956,-11.672 11.03,-11.732 11.397,-11.672C11.691,-11.614 11.839,-11.436 11.766,-11.199L10.589,-8.295C9.339,-5.452 6.839,-1.837 3.015,-0.771C-2.133,0.651 -4.633,-4.503 -5.294,-8.118C-6.25,-13.154 -5.883,-19.731 -5.221,-24.945C-8.971,-24.352 -12.795,-24.47 -12.28,-28.499C-12.28,-29.033 -10.441,-28.914 -10.515,-28.381C-10.883,-25.122 -8.089,-25.241 -5.073,-25.833C-4.559,-29.625 -3.971,-32.825 -3.823,-34.602C-3.823,-34.957 0,-34.839 0,-34.306" style="fill:rgb(33,110,142);fill-rule:nonzero;"/>
            </g>
        </g>
        <g transform="matrix(4.16667,0,0,4.16667,0,0)">
            <g transform="matrix(1,0,0,1,14.3228,283.98)">
                <path d="M0,-12.415L0,-6.59L8.401,-6.59L8.401,-12.415L9.147,-12.415L9.147,0L8.401,0L8.401,-5.861L0,-5.861L0,0L-0.746,0L-0.746,-12.415L0,-12.415Z" style="fill:rgb(33,110,142);fill-rule:nonzero;"/>
            </g>
        </g>
        <g transform="matrix(4.16667,0,0,4.16667,0,0)">
            <g transform="matrix(1,0,0,1,27.4448,279.361)">
                <path d="M0,-0.017C0,2.328 1.617,3.944 3.836,3.944C6.075,3.944 7.673,2.328 7.673,-0.017C7.673,-2.326 6.075,-3.942 3.836,-3.942C1.617,-3.942 0,-2.326 0,-0.017M8.401,-0.017C8.401,2.718 6.483,4.636 3.836,4.636C1.208,4.636 -0.728,2.718 -0.728,-0.017C-0.728,-2.735 1.208,-4.653 3.836,-4.653C6.483,-4.653 8.401,-2.735 8.401,-0.017" style="fill:rgb(33,110,142);fill-rule:nonzero;"/>
            </g>
        </g>
        <g transform="matrix(4.16667,0,0,4.16667,0,0)">
            <g transform="matrix(1,0,0,1,53.9771,280.356)">
                <path d="M0,-2.025L0,3.623L-0.728,3.623L-0.728,-1.882C-0.728,-3.783 -1.829,-4.902 -3.694,-4.902C-5.915,-4.848 -7.211,-3.321 -7.211,-0.906L-7.211,3.623L-7.939,3.623L-7.939,-1.882C-7.939,-3.783 -9.058,-4.902 -10.905,-4.902C-13.125,-4.848 -14.44,-3.321 -14.44,-0.906L-14.44,3.623L-15.168,3.623L-15.168,-5.63L-14.44,-5.63L-14.44,-3.197C-13.836,-4.778 -12.54,-5.612 -10.71,-5.648C-8.845,-5.648 -7.62,-4.653 -7.3,-2.966C-6.731,-4.689 -5.417,-5.612 -3.517,-5.648C-1.296,-5.648 0,-4.28 0,-2.025" style="fill:rgb(33,110,142);fill-rule:nonzero;"/>
            </g>
        </g>
        <g transform="matrix(4.16667,0,0,4.16667,0,0)">
            <g transform="matrix(1,0,0,1,64.772,279.806)">
                <path d="M0,-0.907C-0.142,-3.003 -1.51,-4.424 -3.624,-4.424C-5.702,-4.424 -7.211,-3.003 -7.389,-0.907L0,-0.907ZM0.675,-0.25L-7.407,-0.25C-7.3,2.006 -5.737,3.516 -3.588,3.516C-2.327,3.516 -1.208,3.054 -0.462,2.238L-0.036,2.717C-0.888,3.64 -2.149,4.191 -3.624,4.191C-6.234,4.191 -8.135,2.273 -8.135,-0.445C-8.135,-3.162 -6.234,-5.098 -3.624,-5.098C-0.906,-5.098 0.728,-3.109 0.675,-0.25" style="fill:rgb(33,110,142);fill-rule:nonzero;"/>
            </g>
        </g>
        <g transform="matrix(4.16667,0,0,4.16667,0,0)">
            <g transform="matrix(1,0,0,1,84.7852,277.762)">
                <path d="M0,0.019C0,-3.037 -2.504,-5.469 -5.63,-5.469L-9.804,-5.469L-9.804,5.489L-5.613,5.489C-2.504,5.489 0,3.056 0,0.019M0.764,0.019C0.764,3.464 -2.078,6.217 -5.63,6.217L-10.55,6.217L-10.55,-6.198L-5.613,-6.198C-2.078,-6.198 0.764,-3.462 0.764,0.019" style="fill:rgb(33,110,142);fill-rule:nonzero;"/>
            </g>
        </g>
        <g transform="matrix(4.16667,0,0,4.16667,0,0)">
            <g transform="matrix(1,0,0,1,95.6157,279.806)">
                <path d="M0,-0.907C-0.142,-3.003 -1.51,-4.424 -3.624,-4.424C-5.702,-4.424 -7.211,-3.003 -7.389,-0.907L0,-0.907ZM0.675,-0.25L-7.407,-0.25C-7.3,2.006 -5.737,3.516 -3.588,3.516C-2.327,3.516 -1.208,3.054 -0.462,2.238L-0.036,2.717C-0.888,3.64 -2.149,4.191 -3.624,4.191C-6.234,4.191 -8.135,2.273 -8.135,-0.445C-8.135,-3.162 -6.234,-5.098 -3.624,-5.098C-0.906,-5.098 0.728,-3.109 0.675,-0.25" style="fill:rgb(33,110,142);fill-rule:nonzero;"/>
            </g>
        </g>
        <g transform="matrix(4.16667,0,0,4.16667,0,0)">
            <g transform="matrix(1,0,0,1,102.753,283.286)">
                <path d="M0,-7.867C-2.22,-7.867 -3.819,-6.251 -3.819,-3.942C-3.819,-1.597 -2.22,0.019 0,0.019C1.243,0.019 2.309,-0.443 3.02,-1.278L3.463,-0.799C2.646,0.16 1.421,0.711 -0.018,0.711C-2.628,0.711 -4.547,-1.207 -4.547,-3.925C-4.547,-6.641 -2.628,-8.578 -0.018,-8.578C1.314,-8.578 2.469,-8.098 3.286,-7.281L2.859,-6.749C2.114,-7.441 1.154,-7.867 0,-7.867" style="fill:rgb(33,110,142);fill-rule:nonzero;"/>
            </g>
        </g>
        <g transform="matrix(4.16667,0,0,4.16667,0,0)">
            <g transform="matrix(1,0,0,1,108.63,279.361)">
                <path d="M0,-0.017C0,2.328 1.616,3.944 3.836,3.944C6.075,3.944 7.673,2.328 7.673,-0.017C7.673,-2.326 6.075,-3.942 3.836,-3.942C1.616,-3.942 0,-2.326 0,-0.017M8.401,-0.017C8.401,2.718 6.483,4.636 3.836,4.636C1.208,4.636 -0.728,2.718 -0.728,-0.017C-0.728,-2.735 1.208,-4.653 3.836,-4.653C6.483,-4.653 8.401,-2.735 8.401,-0.017" style="fill:rgb(33,110,142);fill-rule:nonzero;"/>
            </g>
        </g>
        <g transform="matrix(4.16667,0,0,4.16667,0,0)">
            <g transform="matrix(1,0,0,1,124.186,283.979)">
                <path d="M0,-9.271L0,-8.507C-2.043,-8.507 -3.286,-7.158 -3.446,-5.008L-3.446,0L-4.192,0L-4.192,-9.253L-3.446,-9.253L-3.446,-6.926C-2.86,-8.418 -1.652,-9.235 0,-9.271" style="fill:rgb(33,110,142);fill-rule:nonzero;"/>
            </g>
        </g>
        <g transform="matrix(4.16667,0,0,4.16667,0,0)">
            <g transform="matrix(1,0,0,1,160.529,272.976)">
                <path d="M0,8.133C-0.075,8.105 -0.147,8.07 -0.217,8.029C-0.494,7.873 -0.841,7.578 -1.257,7.145C-1.535,6.891 -1.731,6.732 -1.847,6.668C-1.974,6.599 -2.101,6.564 -2.229,6.564C-2.304,6.564 -2.376,6.572 -2.445,6.59C-2.653,6.648 -2.809,6.769 -2.914,6.954C-2.989,7.081 -3.026,7.208 -3.026,7.335C-3.026,7.404 -3.015,7.477 -2.991,7.552C-2.934,7.76 -2.821,7.91 -2.653,8.003C-2.543,8.061 -2.393,8.09 -2.202,8.09C-2.098,8.09 -1.98,8.081 -1.847,8.064L-1.925,8.775C-2.069,8.816 -2.214,8.835 -2.358,8.835C-2.59,8.835 -2.815,8.775 -3.035,8.654C-3.381,8.463 -3.61,8.162 -3.72,7.752C-3.76,7.608 -3.78,7.469 -3.78,7.335C-3.78,7.081 -3.711,6.832 -3.572,6.59C-3.358,6.22 -3.049,5.98 -2.645,5.87C-2.5,5.829 -2.358,5.81 -2.22,5.81C-1.965,5.81 -1.72,5.879 -1.483,6.018C-1.251,6.145 -0.951,6.402 -0.581,6.789C-0.246,7.096 0,7.292 0.156,7.379C0.33,7.477 0.509,7.527 0.694,7.527C0.798,7.527 0.902,7.512 1.006,7.483C1.306,7.402 1.535,7.226 1.691,6.954C1.789,6.775 1.838,6.593 1.838,6.407C1.838,6.31 1.824,6.208 1.795,6.105C1.714,5.81 1.541,5.584 1.274,5.428C1.113,5.335 0.931,5.289 0.729,5.289C0.584,5.289 0.428,5.313 0.26,5.359L0.251,4.587C0.413,4.54 0.575,4.518 0.737,4.518C1.043,4.518 1.344,4.602 1.639,4.769C2.089,5.024 2.384,5.402 2.523,5.904C2.569,6.078 2.592,6.246 2.592,6.407C2.592,6.726 2.509,7.029 2.341,7.319C2.086,7.769 1.705,8.064 1.196,8.202C1.046,8.243 0.902,8.266 0.763,8.272C0.572,8.896 0.228,9.457 -0.269,9.954C-1.072,10.763 -2.041,11.168 -3.173,11.168C-4.307,11.168 -5.275,10.766 -6.078,9.963C-6.882,9.159 -7.283,8.188 -7.283,7.049C-7.283,5.916 -6.887,4.928 -6.095,4.084C-5.552,3.5 -4.847,3.064 -3.98,2.775C-4.396,2.596 -4.822,2.274 -5.259,1.808C-5.695,1.343 -5.914,0.702 -5.914,-0.112C-5.914,-0.91 -5.627,-1.596 -5.055,-2.172C-4.483,-2.747 -3.789,-3.035 -2.974,-3.035C-2.165,-3.035 -1.471,-2.749 -0.893,-2.177C-0.575,-1.87 -0.355,-1.526 -0.234,-1.144L-0.937,-0.867C-1.041,-1.15 -1.211,-1.41 -1.448,-1.647C-1.87,-2.063 -2.379,-2.271 -2.974,-2.271C-3.569,-2.271 -4.078,-2.062 -4.5,-1.643C-4.922,-1.223 -5.133,-0.714 -5.133,-0.112C-5.133,0.483 -4.929,0.997 -4.521,1.431C-4.114,1.864 -3.737,2.148 -3.39,2.28C-3.043,2.413 -2.61,2.483 -2.09,2.488L-2.09,3.217L-2.714,3.235C-3.98,3.472 -4.931,3.937 -5.566,4.63C-6.203,5.323 -6.521,6.13 -6.521,7.049C-6.521,7.974 -6.194,8.763 -5.541,9.416C-4.887,10.07 -4.098,10.396 -3.173,10.396C-2.254,10.396 -1.468,10.07 -0.815,9.416C-0.434,9.035 -0.162,8.608 0,8.133" style="fill:rgb(33,110,142);fill-rule:nonzero;"/>
            </g>
        </g>
        <g transform="matrix(4.16667,0,0,4.16667,0,0)">
            <g transform="matrix(1,0,0,1,182.443,277.762)">
                <path d="M0,0.019C0,-3.037 -2.504,-5.469 -5.63,-5.469L-9.804,-5.469L-9.804,5.489L-5.613,5.489C-2.504,5.489 0,3.056 0,0.019M0.764,0.019C0.764,3.464 -2.078,6.217 -5.63,6.217L-10.55,6.217L-10.55,-6.198L-5.613,-6.198C-2.078,-6.198 0.764,-3.462 0.764,0.019" style="fill:rgb(33,110,142);fill-rule:nonzero;"/>
            </g>
        </g>
        <g transform="matrix(4.16667,0,0,4.16667,0,0)">
            <g transform="matrix(1,0,0,1,193.274,279.806)">
                <path d="M0,-0.907C-0.143,-3.003 -1.51,-4.424 -3.623,-4.424C-5.701,-4.424 -7.211,-3.003 -7.389,-0.907L0,-0.907ZM0.675,-0.25L-7.406,-0.25C-7.3,2.006 -5.737,3.516 -3.588,3.516C-2.327,3.516 -1.208,3.054 -0.462,2.238L-0.036,2.717C-0.888,3.64 -2.149,4.191 -3.623,4.191C-6.234,4.191 -8.135,2.273 -8.135,-0.445C-8.135,-3.162 -6.234,-5.098 -3.623,-5.098C-0.906,-5.098 0.729,-3.109 0.675,-0.25" style="fill:rgb(33,110,142);fill-rule:nonzero;"/>
            </g>
        </g>
        <g transform="matrix(4.16667,0,0,4.16667,0,0)">
            <g transform="matrix(1,0,0,1,200.411,283.286)">
                <path d="M0,-7.867C-2.22,-7.867 -3.818,-6.251 -3.818,-3.942C-3.818,-1.597 -2.22,0.019 0,0.019C1.243,0.019 2.309,-0.443 3.02,-1.278L3.464,-0.799C2.646,0.16 1.421,0.711 -0.018,0.711C-2.629,0.711 -4.547,-1.207 -4.547,-3.925C-4.547,-6.641 -2.629,-8.578 -0.018,-8.578C1.314,-8.578 2.469,-8.098 3.286,-7.281L2.859,-6.749C2.113,-7.441 1.154,-7.867 0,-7.867" style="fill:rgb(33,110,142);fill-rule:nonzero;"/>
            </g>
        </g>
        <g transform="matrix(4.16667,0,0,4.16667,0,0)">
            <g transform="matrix(1,0,0,1,206.288,279.361)">
                <path d="M0,-0.017C0,2.328 1.616,3.944 3.836,3.944C6.074,3.944 7.673,2.328 7.673,-0.017C7.673,-2.326 6.074,-3.942 3.836,-3.942C1.616,-3.942 0,-2.326 0,-0.017M8.4,-0.017C8.4,2.718 6.482,4.636 3.836,4.636C1.207,4.636 -0.729,2.718 -0.729,-0.017C-0.729,-2.735 1.207,-4.653 3.836,-4.653C6.482,-4.653 8.4,-2.735 8.4,-0.017" style="fill:rgb(33,110,142);fill-rule:nonzero;"/>
            </g>
        </g>
        <g transform="matrix(4.16667,0,0,4.16667,0,0)">
            <g transform="matrix(1,0,0,1,221.845,283.979)">
                <path d="M0,-9.271L0,-8.507C-2.043,-8.507 -3.286,-7.158 -3.446,-5.008L-3.446,0L-4.192,0L-4.192,-9.253L-3.446,-9.253L-3.446,-6.926C-2.859,-8.418 -1.652,-9.235 0,-9.271" style="fill:rgb(33,110,142);fill-rule:nonzero;"/>
            </g>
        </g>
        <g transform="matrix(4.16667,0,0,4.16667,0,0)">
            <g transform="matrix(1,0,0,1,229.569,277.745)">
                <path d="M0,3.215L0,1.705L-3.232,1.705C-5.044,1.705 -6.039,2.327 -6.039,3.517C-6.039,4.742 -5.098,5.577 -3.588,5.577C-1.865,5.577 -0.568,4.831 0,3.215M0.018,6.235L0,4.405C-0.781,5.684 -2.096,6.252 -3.694,6.252C-5.523,6.252 -6.749,5.098 -6.749,3.534C-6.749,1.989 -5.435,1.048 -3.304,1.048L-0.018,1.048L-0.018,0.143C-0.035,-1.421 -0.941,-2.362 -2.788,-2.362C-3.942,-2.362 -4.92,-1.9 -5.896,-1.154L-6.252,-1.723C-5.15,-2.521 -4.085,-3.037 -2.682,-3.037C-0.497,-3.037 0.692,-1.829 0.711,0.089L0.746,6.235L0.018,6.235Z" style="fill:rgb(33,110,142);fill-rule:nonzero;"/>
            </g>
        </g>
        <g transform="matrix(4.16667,0,0,4.16667,0,0)">
            <g transform="matrix(1,0,0,1,238.322,273.341)">
                <path d="M0,9.999C-0.586,10.408 -1.243,10.656 -1.936,10.656C-3.25,10.674 -4.031,9.821 -4.031,8.081L-4.031,2.255L-5.381,2.255L-5.381,1.616L-4.031,1.616L-4.031,-0.675L-3.321,-0.675L-3.321,1.616L-0.177,1.616L-0.177,2.255L-3.321,2.255L-3.321,7.992C-3.321,9.307 -2.806,9.946 -1.847,9.929C-1.313,9.929 -0.764,9.732 -0.284,9.395L0,9.999Z" style="fill:rgb(33,110,142);fill-rule:nonzero;"/>
            </g>
        </g>
        <g transform="matrix(4.16667,0,0,4.16667,0,0)">
            <g transform="matrix(1,0,0,1,0,195.401)">
                <path d="M241.571,88.578L240.843,88.578L240.843,79.324L241.571,79.324L241.571,88.578ZM241.838,76.661C241.838,77.034 241.554,77.318 241.216,77.318C240.879,77.318 240.595,77.034 240.595,76.661C240.595,76.305 240.879,76.021 241.216,76.021C241.554,76.021 241.838,76.305 241.838,76.661" style="fill:rgb(33,110,142);fill-rule:nonzero;"/>
            </g>
        </g>
        <g transform="matrix(4.16667,0,0,4.16667,0,0)">
            <g transform="matrix(1,0,0,1,253.666,280.356)">
                <path d="M0,-2.025L0,3.623L-0.746,3.623L-0.746,-1.882C-0.746,-3.783 -1.865,-4.902 -3.766,-4.902C-5.896,-4.848 -7.211,-3.516 -7.371,-1.385L-7.371,3.623L-8.117,3.623L-8.117,-5.63L-7.371,-5.63L-7.371,-3.268C-6.749,-4.796 -5.435,-5.612 -3.588,-5.648C-1.332,-5.648 0,-4.28 0,-2.025" style="fill:rgb(33,110,142);fill-rule:nonzero;"/>
            </g>
        </g>
        <g transform="matrix(4.16667,0,0,4.16667,0,0)">
            <g transform="matrix(1,0,0,1,264.392,282.968)">
                <path d="M0,-3.784C0,-5.986 -1.563,-7.585 -3.694,-7.585C-5.825,-7.585 -7.371,-5.986 -7.371,-3.784C-7.371,-1.599 -5.844,-0.001 -3.694,-0.001C-1.563,-0.001 0,-1.599 0,-3.784M0.711,-8.242L0.711,-0.001C0.711,2.735 -1.048,4.476 -3.766,4.457C-5.239,4.422 -6.43,3.925 -7.513,2.947L-7.122,2.398C-6.163,3.303 -5.115,3.73 -3.783,3.765C-1.492,3.782 0,2.309 0,-0.001L0,-1.741C-0.64,-0.266 -2.024,0.639 -3.783,0.639C-6.27,0.639 -8.063,-1.226 -8.063,-3.802C-8.063,-6.394 -6.27,-8.26 -3.801,-8.26C-2.024,-8.26 -0.657,-7.336 0,-5.862L0,-8.242L0.711,-8.242Z" style="fill:rgb(33,110,142);fill-rule:nonzero;"/>
            </g>
        </g>
        <g transform="matrix(4.16667,0,0,4.16667,0,0)">
            <g transform="matrix(1,0,0,1,277.957,283.216)">
                <path d="M0,-10.906C-1.972,-10.906 -3.25,-10.09 -3.25,-8.793C-3.25,-5.01 4.05,-6.964 4.014,-2.381C4.014,-0.463 2.291,0.781 -0.302,0.781C-1.954,0.781 -3.641,0.053 -4.725,-1.013L-4.334,-1.671C-3.321,-0.623 -1.74,0.017 -0.284,0.017C1.848,0.017 3.215,-0.907 3.215,-2.363C3.25,-6.253 -4.05,-4.263 -4.05,-8.739C-4.05,-10.533 -2.416,-11.687 0.035,-11.687C1.297,-11.687 2.664,-11.279 3.588,-10.676L3.25,-10.001C2.327,-10.604 1.065,-10.906 0,-10.906" style="fill:rgb(33,110,142);fill-rule:nonzero;"/>
            </g>
        </g>
        <g transform="matrix(4.16667,0,0,4.16667,0,0)">
            <g transform="matrix(1,0,0,1,292.448,279.806)">
                <path d="M0,-0.907C-0.143,-3.003 -1.51,-4.424 -3.623,-4.424C-5.701,-4.424 -7.211,-3.003 -7.389,-0.907L0,-0.907ZM0.675,-0.25L-7.406,-0.25C-7.3,2.006 -5.737,3.516 -3.588,3.516C-2.327,3.516 -1.208,3.054 -0.462,2.238L-0.036,2.717C-0.888,3.64 -2.149,4.191 -3.623,4.191C-6.234,4.191 -8.135,2.273 -8.135,-0.445C-8.135,-3.162 -6.234,-5.098 -3.623,-5.098C-0.906,-5.098 0.729,-3.109 0.675,-0.25" style="fill:rgb(33,110,142);fill-rule:nonzero;"/>
            </g>
        </g>
        <g transform="matrix(4.16667,0,0,4.16667,0,0)">
            <g transform="matrix(1,0,0,1,300.226,283.979)">
                <path d="M0,-9.271L0,-8.507C-2.043,-8.507 -3.286,-7.158 -3.446,-5.008L-3.446,0L-4.192,0L-4.192,-9.253L-3.446,-9.253L-3.446,-6.926C-2.859,-8.418 -1.652,-9.235 0,-9.271" style="fill:rgb(33,110,142);fill-rule:nonzero;"/>
            </g>
        </g>
        <g transform="matrix(4.16667,0,0,4.16667,0,0)">
            <g transform="matrix(1,0,0,1,302.123,283.98)">
                <path d="M0,-9.254L3.339,-0.799L6.66,-9.254L7.441,-9.254L3.712,0L2.948,0L-0.799,-9.254L0,-9.254Z" style="fill:rgb(33,110,142);fill-rule:nonzero;"/>
            </g>
        </g>
        <g transform="matrix(4.16667,0,0,4.16667,0,0)">
            <g transform="matrix(1,0,0,1,0,195.401)">
                <path d="M312.387,88.578L311.658,88.578L311.658,79.324L312.387,79.324L312.387,88.578ZM312.653,76.661C312.653,77.034 312.369,77.318 312.031,77.318C311.694,77.318 311.41,77.034 311.41,76.661C311.41,76.305 311.694,76.021 312.031,76.021C312.369,76.021 312.653,76.305 312.653,76.661" style="fill:rgb(33,110,142);fill-rule:nonzero;"/>
            </g>
        </g>
        <g transform="matrix(4.16667,0,0,4.16667,0,0)">
            <g transform="matrix(1,0,0,1,319.917,283.286)">
                <path d="M0,-7.867C-2.22,-7.867 -3.818,-6.251 -3.818,-3.942C-3.818,-1.597 -2.22,0.019 0,0.019C1.243,0.019 2.309,-0.443 3.02,-1.278L3.464,-0.799C2.646,0.16 1.421,0.711 -0.018,0.711C-2.629,0.711 -4.547,-1.207 -4.547,-3.925C-4.547,-6.641 -2.629,-8.578 -0.018,-8.578C1.314,-8.578 2.469,-8.098 3.286,-7.281L2.859,-6.749C2.113,-7.441 1.154,-7.867 0,-7.867" style="fill:rgb(33,110,142);fill-rule:nonzero;"/>
            </g>
        </g>
        <g transform="matrix(4.16667,0,0,4.16667,0,0)">
            <g transform="matrix(1,0,0,1,333.2,279.806)">
                <path d="M0,-0.907C-0.143,-3.003 -1.51,-4.424 -3.623,-4.424C-5.701,-4.424 -7.211,-3.003 -7.389,-0.907L0,-0.907ZM0.675,-0.25L-7.406,-0.25C-7.3,2.006 -5.737,3.516 -3.588,3.516C-2.327,3.516 -1.208,3.054 -0.462,2.238L-0.036,2.717C-0.888,3.64 -2.149,4.191 -3.623,4.191C-6.234,4.191 -8.135,2.273 -8.135,-0.445C-8.135,-3.162 -6.234,-5.098 -3.623,-5.098C-0.906,-5.098 0.729,-3.109 0.675,-0.25" style="fill:rgb(33,110,142);fill-rule:nonzero;"/>
            </g>
        </g>
        <g transform="matrix(4.16667,0,0,4.16667,0,0)">
            <g transform="matrix(1,0,0,1,338.951,283.322)">
                <path d="M0,-7.939C-1.296,-7.939 -2.309,-7.441 -2.309,-6.34C-2.309,-3.854 3.091,-5.08 3.091,-1.811C3.091,-0.088 1.546,0.675 -0.124,0.675C-1.421,0.675 -2.664,0.213 -3.517,-0.603L-3.179,-1.171C-2.38,-0.425 -1.261,0 -0.089,0C1.208,0 2.327,-0.514 2.381,-1.687C2.451,-4.297 -3.02,-3.108 -3.02,-6.287C-3.02,-7.903 -1.616,-8.614 0.019,-8.614C1.048,-8.614 1.937,-8.33 2.664,-7.885L2.345,-7.282C1.705,-7.69 0.889,-7.939 0,-7.939" style="fill:rgb(33,110,142);fill-rule:nonzero;"/>
            </g>
        </g>
    </g>
</svg>
